<svg id="icon-insta" xmlns="http://www.w3.org/2000/svg" width="38" height="38" viewBox="0 0 38 38">
<path id="Path_1833" data-name="Path 1833" d="M19,0A19,19,0,1,1,0,19,19,19,0,0,1,19,0Z" fill="#7FBFF5"></path>
<path id="icons8-instagram" d="M7.955,3A4.962,4.962,0,0,0,3,7.957v7.08a4.962,4.962,0,0,0,4.957,4.955h7.08a4.962,4.962,0,0,0,4.955-4.957V7.955A4.962,4.962,0,0,0,15.035,3Zm8.5,2.832a.708.708,0,1,1-.708.708A.708.708,0,0,1,16.452,5.832ZM11.5,7.248A4.248,4.248,0,1,1,7.248,11.5,4.252,4.252,0,0,1,11.5,7.248Zm0,1.416A2.832,2.832,0,1,0,14.328,11.5,2.832,2.832,0,0,0,11.5,8.664Z" transform="translate(7.504 7.504)" fill="#002349"></path>
</svg>