<svg width="38" height="38" viewBox="0 0 38 38" fill="none" xmlns="http://www.w3.org/2000/svg">
<path d="M19.001 0C24.0401 0 28.8728 2.00175 32.436 5.56494C35.9992 9.12813 38.001 13.9609 38.001 19C38.001 24.0391 35.9992 28.8719 32.436 32.4351C28.8728 35.9982 24.0401 38 19.001 38C13.9619 38 9.12911 35.9982 5.56592 32.4351C2.00273 28.8719 0.000976562 24.0391 0.000976562 19C0.000976562 13.9609 2.00273 9.12813 5.56592 5.56494C9.12911 2.00175 13.9619 0 19.001 0Z" fill="#7FBFF5"></path>
<path d="M25.2799 10.425C23.7103 8.96645 21.6361 8.17382 19.4939 8.21397C18.2589 8.167 17.0273 8.37206 15.8742 8.81666C14.7211 9.26127 13.6706 9.93609 12.7869 10.8C11.3705 12.2039 10.5591 14.106 10.5259 16.1C10.5259 18.5 11.5259 20.344 13.2119 21.03C13.3189 21.0751 13.4337 21.0989 13.5499 21.1C13.7223 21.0992 13.8893 21.0391 14.0227 20.9299C14.1562 20.8207 14.248 20.6689 14.2829 20.5C14.3399 20.286 14.4709 19.759 14.5289 19.53C14.5904 19.3603 14.6001 19.1761 14.5566 19.0008C14.5132 18.8256 14.4186 18.6673 14.2849 18.546C13.7895 17.9453 13.5353 17.1817 13.5719 16.404C13.5667 15.676 13.7089 14.9545 13.9901 14.2829C14.2713 13.6114 14.6855 13.0037 15.2078 12.4966C15.7302 11.9895 16.3498 11.5934 17.0294 11.3323C17.7089 11.0711 18.4344 10.9502 19.1619 10.977C22.0429 10.977 23.8329 12.615 23.8329 15.251C23.8705 16.7592 23.5233 18.2522 22.8239 19.589C22.6027 20.0699 22.2575 20.4833 21.8238 20.7867C21.3901 21.0902 20.8835 21.2729 20.3559 21.316C20.1083 21.3217 19.8626 21.2711 19.6374 21.168C19.4123 21.0649 19.2134 20.9121 19.0559 20.721C18.9155 20.5389 18.8188 20.3269 18.7734 20.1015C18.728 19.8761 18.735 19.6432 18.7939 19.421C18.9219 18.877 19.0939 18.31 19.2669 17.762C19.5878 16.8932 19.7896 15.9849 19.8669 15.062C19.8961 14.7861 19.8664 14.5071 19.7797 14.2436C19.6931 13.98 19.5516 13.7378 19.3644 13.533C19.1773 13.3282 18.9488 13.1654 18.6941 13.0554C18.4394 12.9454 18.1643 12.8907 17.8869 12.895C16.3869 12.895 15.2109 14.419 15.2109 16.365C15.2072 17.03 15.3322 17.6894 15.5789 18.307C15.3899 19.107 14.2659 23.87 14.0529 24.767C13.9299 25.291 13.1869 29.431 14.4159 29.761C15.7959 30.132 17.0299 26.1 17.1559 25.644C17.2559 25.273 17.6139 23.872 17.8319 23.011C18.5952 23.7004 19.5863 24.0835 20.6149 24.087C21.5825 24.0885 22.5371 23.8637 23.4025 23.4307C24.2678 22.9977 25.02 22.3684 25.5989 21.593C26.8766 19.8127 27.535 17.6624 27.4729 15.472C27.4639 14.5267 27.2651 13.5929 26.8884 12.726C26.5117 11.859 25.9647 11.0765 25.2799 10.425Z" fill="#002349"></path>
</svg>