<svg width="38" height="38" viewBox="0 0 38 38" fill="none" xmlns="http://www.w3.org/2000/svg">
<path d="M19 0C22.7578 0 26.4313 1.11433 29.5558 3.20208C32.6804 5.28982 35.1156 8.25722 36.5537 11.729C37.9918 15.2008 38.368 19.0211 37.6349 22.7067C36.9018 26.3924 35.0922 29.7778 32.435 32.435C29.7778 35.0922 26.3924 36.9018 22.7067 37.6349C19.0211 38.368 15.2008 37.9918 11.729 36.5537C8.25722 35.1156 5.28982 32.6804 3.20208 29.5558C1.11433 26.4313 0 22.7578 0 19C0 13.9609 2.00178 9.12816 5.56497 5.56497C9.12816 2.00178 13.9609 0 19 0Z" fill="#7FBFF5"></path>
<path d="M23.7779 18.271C23.6919 18.2297 23.6046 18.19 23.5159 18.152C23.3619 15.313 21.8119 13.687 19.2049 13.671H19.1699C18.4518 13.6459 17.7392 13.805 17.0999 14.1332C16.4607 14.4614 15.9161 14.9478 15.5179 15.546L16.9509 16.529C17.1963 16.1714 17.5291 15.8825 17.9177 15.69C18.3063 15.4974 18.7378 15.4076 19.1709 15.429H19.1949C19.5503 15.4043 19.9068 15.4578 20.2392 15.5858C20.5717 15.7139 20.872 15.9133 21.1189 16.17C21.4529 16.5916 21.6639 17.0972 21.7289 17.631C20.9148 17.5008 20.0886 17.4629 19.2659 17.518C16.7889 17.661 15.1969 19.105 15.3039 21.113C15.3277 21.608 15.4698 22.09 15.7183 22.5187C15.9667 22.9474 16.3143 23.3103 16.7319 23.577C17.5246 24.076 18.4556 24.3097 19.3899 24.244C19.9711 24.238 20.5436 24.103 21.0662 23.8488C21.5888 23.5946 22.0485 23.2275 22.4119 22.774C22.9922 21.9833 23.3477 21.0503 23.4409 20.074C24.0259 20.4055 24.4909 20.9138 24.7689 21.526C25.0393 22.2033 25.0991 22.9464 24.9405 23.6583C24.7819 24.3701 24.4123 25.0175 23.8799 25.516C23.2547 26.1151 22.5105 26.576 21.6957 26.8689C20.8808 27.1617 20.0135 27.28 19.1499 27.216C18.146 27.2817 17.1405 27.112 16.2137 26.7203C15.287 26.3286 14.4645 25.7258 13.8119 24.96C12.6114 23.2124 12.0215 21.1173 12.1339 19C12.0215 16.8827 12.6114 14.7876 13.8119 13.04C14.4639 12.2738 15.2859 11.6704 16.2123 11.278C17.1387 10.8856 18.144 10.7151 19.1479 10.78C20.1657 10.7193 21.1838 10.8925 22.1242 11.2863C23.0646 11.6801 23.9022 12.2842 24.5729 13.052C25.2025 13.8564 25.6585 14.7825 25.9119 15.772L27.5909 15.324C27.2745 14.0847 26.7 12.9261 25.9049 11.924C25.078 10.9542 24.039 10.1877 22.8683 9.68375C21.6977 9.17984 20.4268 8.95205 19.1539 9.01801H19.1419C17.879 8.94904 16.6174 9.17729 15.4586 9.68443C14.2999 10.1916 13.2762 10.9634 12.4699 11.938C11.0191 13.9957 10.2949 16.478 10.4119 18.993V19.007C10.2947 21.5224 11.0188 24.0051 12.4699 26.063C13.2762 27.0376 14.2999 27.8095 15.4586 28.3166C16.6174 28.8237 17.879 29.052 19.1419 28.983H19.1539C20.2413 29.0489 21.3305 28.8873 22.3519 28.5085C23.3733 28.1297 24.3045 27.542 25.0859 26.783C25.8708 26.0325 26.4112 25.0628 26.6365 24.0004C26.8619 22.9381 26.7616 21.8325 26.3489 20.828C25.8341 19.6895 24.9192 18.7796 23.7779 18.271ZM19.2959 22.484C18.2119 22.546 17.0829 22.058 17.0269 21.018C16.9859 20.244 17.5779 19.381 19.3629 19.278C19.5676 19.266 19.7676 19.26 19.9629 19.26C20.5698 19.2566 21.1753 19.3183 21.7689 19.444C21.5659 22.009 20.3589 22.426 19.2959 22.484Z" fill="#002349"></path>
</svg>