<svg width="38" height="38" viewBox="0 0 38 38" fill="none" xmlns="http://www.w3.org/2000/svg">
<path d="M19 0C24.0391 0 28.8719 2.00175 32.4351 5.56494C35.9982 9.12813 38 13.9609 38 19C38 24.0391 35.9982 28.8719 32.4351 32.4351C28.8719 35.9982 24.0391 38 19 38C13.9609 38 9.12813 35.9982 5.56494 32.4351C2.00175 28.8719 0 24.0391 0 19C0 13.9609 2.00175 9.12813 5.56494 5.56494C9.12813 2.00175 13.9609 0 19 0Z" fill="#7FBFF5"></path>
<path d="M23.191 22.252V23.3409C23.207 23.1609 23.215 22.9779 23.215 22.7939C23.215 22.6099 23.208 22.431 23.191 22.252ZM19.734 23.1899V22.7899C19.7341 22.9237 19.7251 23.0574 19.707 23.1899H19.734Z" fill="#7FBFF5"></path>
<path d="M27.4051 13.853V17.57H27.3391C25.8318 17.5715 24.3693 17.0578 23.1941 16.114V23.341C23.1945 23.3446 23.1945 23.3483 23.1941 23.352C23.0856 24.5712 22.6249 25.7325 21.8681 26.6945C21.1113 27.6565 20.091 28.3776 18.9316 28.77C17.7722 29.1624 16.5237 29.209 15.3382 28.9044C14.1527 28.5997 13.0814 27.9568 12.2549 27.054C11.4283 26.1512 10.8822 25.0275 10.683 23.8198C10.4838 22.6121 10.6402 21.3726 11.133 20.2522C11.6259 19.1318 12.434 18.1789 13.4588 17.5097C14.4837 16.8404 15.6811 16.4837 16.9051 16.483V19.964C16.3625 19.9638 15.8312 20.1196 15.3747 20.413C14.9182 20.7063 14.5557 21.1247 14.3304 21.6184C14.1051 22.112 14.0266 22.66 14.1041 23.1971C14.1816 23.7341 14.4119 24.2375 14.7676 24.6473C15.1233 25.0571 15.5893 25.356 16.1101 25.5083C16.6309 25.6606 17.1845 25.6599 17.7049 25.5062C18.2253 25.3526 18.6906 25.0526 19.0452 24.6419C19.3999 24.2312 19.6289 23.7272 19.7051 23.19H19.7321V8.89697H23.1941V9.09697C23.1951 10.268 23.6242 11.3982 24.4005 12.2749C25.1768 13.1516 26.2468 13.7143 27.4091 13.857" fill="#002349"></path>
<path d="M23.1899 23.342V23.353C23.1904 23.3494 23.1904 23.3457 23.1899 23.342Z" fill="#7FBFF5"></path>
<path d="M19.7331 22.7941V23.1941H19.7061C19.7242 23.0615 19.7332 22.9279 19.7331 22.7941Z" fill="#7FBFF5"></path>
</svg>