<svg id="icon-youtube" xmlns="http://www.w3.org/2000/svg" width="38" height="38" viewBox="0 0 38 38">
<path id="Path_1911" data-name="Path 1911" d="M19,0A19,19,0,1,1,0,19,19,19,0,0,1,19,0Z" fill="#7FBFF5"></path>
<g id="icon" transform="translate(7.465 -41.124)">
<path id="Path_1814" data-name="Path 1814" d="M20.269,55.016a2.743,2.743,0,0,0-1.83-2.023c-1.614-.478-8.088-.478-8.088-.478s-6.474,0-8.088.478a2.743,2.743,0,0,0-1.83,2.023,35.265,35.265,0,0,0,0,11.014,2.743,2.743,0,0,0,1.83,2.023c1.614.478,8.088.478,8.088.478s6.474,0,8.088-.478a2.743,2.743,0,0,0,1.83-2.023,32.833,32.833,0,0,0,.433-5.507A32.833,32.833,0,0,0,20.269,55.016Z" transform="translate(1.333 0)" fill="#002349"></path>
<path id="Path_1815" data-name="Path 1815" d="M140.04,129.4l5.944-3.432-5.944-3.432Z" transform="translate(-130.644 -65.444)" fill="#7FBFF5"></path>
</g>
</svg>